<?xml version="1.0" standalone="no"?>
<!DOCTYPE svg PUBLIC "-//W3C//DTD SVG 20010904//EN"
 "http://www.w3.org/TR/2001/REC-SVG-20010904/DTD/svg10.dtd">
<svg version="1.0" xmlns="http://www.w3.org/2000/svg"
 width="360.000000pt" height="360.000000pt" viewBox="0 0 360.000000 360.000000"
 preserveAspectRatio="xMidYMid meet">
<metadata>
Created by potrace 1.14, written by Peter Selinger 2001-2017
</metadata>
<g transform="translate(0.000000,360.000000) scale(0.100000,-0.100000)"
fill="#000000" stroke="none">
<path d="M1609 2976 c-2 -2 -42 -6 -89 -10 -91 -6 -137 -12 -185 -20 -16 -3
-46 -8 -65 -11 -415 -71 -808 -248 -1028 -465 -116 -113 -198 -253 -228 -387
-13 -60 -15 -117 -12 -326 4 -233 6 -257 28 -317 141 -392 602 -674 1295 -794
17 -3 55 -8 85 -12 30 -3 82 -9 115 -14 60 -8 538 -5 585 3 14 3 48 7 75 11
90 10 178 26 335 61 41 9 113 30 190 55 265 87 495 219 648 370 109 108 159
181 205 304 l31 81 3 260 c2 207 0 273 -12 325 -81 343 -452 636 -995 785
-132 36 -311 73 -397 81 -28 3 -66 7 -85 10 -38 7 -493 16 -499 10z m491 -249
c14 -3 48 -8 75 -12 28 -3 76 -10 107 -16 32 -5 70 -12 85 -15 69 -12 258 -66
341 -98 423 -162 675 -416 649 -657 -34 -316 -475 -605 -1083 -709 -171 -29
-247 -35 -474 -35 -362 0 -635 45 -908 149 -317 121 -523 279 -614 472 -29 61
-33 79 -33 155 0 80 2 90 42 170 66 134 205 259 403 366 53 28 228 103 242
103 4 0 19 5 35 12 15 6 33 12 38 14 6 1 53 14 105 28 119 32 309 65 420 73
47 3 87 7 89 9 6 6 451 -3 481 -9z"/>
<path d="M2530 2360 c-25 -4 -63 -10 -85 -13 -22 -3 -107 -17 -190 -31 -82
-14 -163 -27 -180 -29 -16 -3 -57 -10 -90 -16 -80 -14 -110 -19 -170 -27 -27
-3 -59 -8 -70 -10 -11 -2 -49 -9 -85 -15 -96 -15 -97 -15 -335 -53 -121 -20
-236 -39 -255 -42 -51 -9 -71 -12 -110 -18 -19 -3 -46 -8 -60 -10 -14 -3 -43
-8 -65 -11 -22 -4 -44 -8 -50 -9 -27 -5 -45 -25 -51 -53 -5 -28 -2 -34 24 -50
16 -10 172 -61 347 -113 l317 -94 37 -66 c21 -36 51 -90 68 -120 16 -30 47
-86 68 -125 62 -115 97 -139 141 -96 16 15 429 439 654 671 36 37 107 110 157
162 75 77 92 99 88 119 -4 22 -39 60 -54 58 -3 -1 -26 -5 -51 -9z m-699 -326
c75 -23 119 -69 115 -124 -6 -80 -79 -124 -206 -124 -125 0 -196 42 -207 121
-6 53 33 98 107 123 68 24 120 25 191 4z"/>
</g>
</svg>
